<svg width="27" height="27" viewBox="0 0 27 27" fill="none" xmlns="http://www.w3.org/2000/svg">
<path d="M16.8757 20.25V21.0938C16.8757 21.9889 16.5201 22.8473 15.8872 23.4802C15.2542 24.1132 14.3958 24.4688 13.5007 24.4688C12.6056 24.4688 11.7471 24.1132 11.1142 23.4802C10.4813 22.8473 10.1257 21.9889 10.1257 21.0938V20.25M22.5541 18.5324C21.1999 16.875 20.2438 16.0313 20.2438 11.4618C20.2438 7.27734 18.107 5.78654 16.3483 5.0625C16.1147 4.96652 15.8948 4.74609 15.8236 4.50615C15.5151 3.45621 14.6503 2.53125 13.5007 2.53125C12.3511 2.53125 11.4857 3.45674 11.1804 4.50721C11.1092 4.74979 10.8893 4.96652 10.6557 5.0625C8.89487 5.7876 6.76018 7.27313 6.76018 11.4618C6.75754 16.0313 5.80147 16.875 4.44725 18.5324C3.88616 19.219 4.37764 20.25 5.35903 20.25H21.6476C22.6237 20.25 23.1121 19.2159 22.5541 18.5324Z" stroke="#1C1B1F" stroke-width="2.4" stroke-linecap="round" stroke-linejoin="round"/>
<circle cx="19.5" cy="6.5" r="5.25" fill="#F89167" stroke="#FEF8F0" stroke-width="1.5"/>
</svg>
