<svg width="33" height="34" viewBox="0 0 33 34" fill="none" xmlns="http://www.w3.org/2000/svg">
<path d="M25.912 11.3281C25.7232 13.9494 23.7786 15.9688 21.6581 15.9688C19.5376 15.9688 17.5898 13.9501 17.4042 11.3281C17.2109 8.60111 19.1038 6.6875 21.6581 6.6875C24.2124 6.6875 26.1054 8.65074 25.912 11.3281Z" stroke="#3C3C3D" stroke-opacity="0.6" stroke-width="2.4" stroke-linecap="round" stroke-linejoin="round"/>
<path d="M21.656 20.0938C17.4556 20.0938 13.4163 22.1801 12.4044 26.2432C12.2703 26.7808 12.6074 27.3125 13.1598 27.3125H30.1529C30.7052 27.3125 31.0404 26.7808 30.9082 26.2432C29.8963 22.115 25.8571 20.0938 21.656 20.0938Z" stroke="#3C3C3D" stroke-opacity="0.6" stroke-width="2.4" stroke-miterlimit="10"/>
<path d="M12.8896 12.4844C12.7388 14.5779 11.1674 16.2266 9.47358 16.2266C7.77975 16.2266 6.2058 14.5785 6.05756 12.4844C5.90352 10.3065 7.43299 8.75 9.47358 8.75C11.5142 8.75 13.0436 10.3465 12.8896 12.4844Z" stroke="#3C3C3D" stroke-opacity="0.6" stroke-width="2.4" stroke-linecap="round" stroke-linejoin="round"/>
<path d="M13.278 20.2224C12.1146 19.6893 10.8333 19.4844 9.47524 19.4844C6.12368 19.4844 2.89458 21.1505 2.08569 24.3957C1.97934 24.825 2.24876 25.2497 2.68962 25.2497H9.92641" stroke="#3C3C3D" stroke-opacity="0.6" stroke-width="2.4" stroke-miterlimit="10" stroke-linecap="round"/>
</svg>
