<svg width="25" height="25" viewBox="0 0 25 25" fill="none" xmlns="http://www.w3.org/2000/svg">
<g clip-path="url(#clip0_228_643)">
<path d="M13.7812 12.25C13.7812 13.097 13.097 13.7812 12.25 13.7812C11.403 13.7812 10.7188 13.097 10.7188 12.25C10.7188 11.403 11.403 10.7188 12.25 10.7188C13.097 10.7188 13.7812 11.403 13.7812 12.25ZM0 12.25C0 5.48379 5.48379 0 12.25 0C19.0162 0 24.5 5.48379 24.5 12.25C24.5 19.0162 19.0162 24.5 12.25 24.5C5.48379 24.5 0 19.0162 0 12.25ZM15.5565 14.6761L18.2123 7.77109C18.5712 6.79971 17.6572 5.92881 16.7289 6.28769L9.82393 8.94346C9.41719 9.09658 9.09658 9.41719 8.94346 9.82393L6.28769 16.7289C5.92881 17.6572 6.79971 18.5712 7.77109 18.2123L14.6761 15.5565C15.0828 15.4034 15.4034 15.0828 15.5565 14.6761Z" fill="#9548D1"/>
</g>
<defs>
<clipPath id="clip0_228_643">
<rect width="24.5" height="24.5" fill="white"/>
</clipPath>
</defs>
</svg>
