<svg width="22" height="27" viewBox="0 0 22 27" fill="none" xmlns="http://www.w3.org/2000/svg">
<path d="M17.75 10.1C18.3467 10.1 18.919 10.3371 19.341 10.759C19.7629 11.181 20 11.7533 20 12.35V23.15C20 23.7467 19.7629 24.319 19.341 24.741C18.919 25.1629 18.3467 25.4 17.75 25.4H4.25C3.65326 25.4 3.08097 25.1629 2.65901 24.741C2.23705 24.319 2 23.7467 2 23.15V12.35C2 11.7533 2.23705 11.181 2.65901 10.759C3.08097 10.3371 3.65326 10.1 4.25 10.1M15.5 6.5L11 2M11 2L6.5 6.5M11 2V5.83906V7.75859V9.67813V17.3563" stroke="#1C1B1F" stroke-width="2.2" stroke-linecap="round" stroke-linejoin="round"/>
</svg>
