<svg width="17" height="17" viewBox="0 0 17 17" fill="none" xmlns="http://www.w3.org/2000/svg">
<g clip-path="url(#clip0_277_391)">
<path d="M8.50059 2.20506e-09C8.65664 -9.95873e-06 8.80605 0.0337277 8.94551 0.0969797L15.1977 2.74915C15.9281 3.05893 16.476 3.77877 16.4693 4.61881C16.4527 7.94245 15.098 13.9688 9.37715 16.7081C8.82266 16.9704 8.17852 16.9704 7.62402 16.7081C1.90146 13.9688 0.548105 7.94245 0.501953 4.61881C0.52752 3.77877 1.07371 3.05893 1.80352 2.74915L8.05898 0.0969797C8.19512 0.0337277 8.34785 -9.95873e-06 8.50059 2.20506e-09ZM8.50059 14.769C13.0527 12.551 14.3145 7.6403 14.3443 4.69518L8.50059 2.21723V14.769Z" fill="#285FE5"/>
</g>
<defs>
<clipPath id="clip0_277_391">
<rect width="17" height="17" fill="white"/>
</clipPath>
</defs>
</svg>
